<svg width="20" height="20" viewBox="0 0 20 20" fill="none" xmlns="http://www.w3.org/2000/svg">
<path d="M4.625 1L1.75 4.6V17.2C1.75 17.6774 1.95193 18.1352 2.31138 18.4728C2.67082 18.8104 3.15834 19 3.66667 19H17.0833C17.5917 19 18.0792 18.8104 18.4386 18.4728C18.7981 18.1352 19 17.6774 19 17.2V4.6L16.125 1H4.625Z" stroke="white" stroke-width="2" stroke-linecap="round" stroke-linejoin="round"/>
<path d="M1.75 4.60028H19" stroke="white" stroke-width="2" stroke-linecap="round" stroke-linejoin="round"/>
<path d="M14.2086 8.19983C14.2086 9.15533 13.8048 10.0717 13.0859 10.7473C12.367 11.423 11.392 11.8025 10.3753 11.8025C9.35864 11.8025 8.38361 11.423 7.66473 10.7473C6.94584 10.0717 6.54197 9.15533 6.54197 8.19983" stroke="white" stroke-width="2" stroke-linecap="round" stroke-linejoin="round"/>
</svg>
