<svg width="24" height="24" viewBox="0 0 24 24" fill="none" xmlns="http://www.w3.org/2000/svg">
<path d="M16.5002 3H7.50023C5.01495 3 3.00023 5.01472 3.00023 7.5V16.5C3.00023 18.9853 5.01495 21 7.50023 21H16.5002C18.9855 21 21.0002 18.9853 21.0002 16.5V7.5C21.0002 5.01472 18.9855 3 16.5002 3Z" stroke="white" stroke-width="2" stroke-linecap="round" stroke-linejoin="round"/>
<path d="M15.599 11.433C15.7101 12.182 15.5822 12.947 15.2334 13.6191C14.8847 14.2913 14.3329 14.8363 13.6565 15.1767C12.9801 15.5172 12.2136 15.6357 11.4661 15.5154C10.7185 15.3951 10.0278 15.0421 9.4924 14.5067C8.95697 13.9712 8.604 13.2806 8.48371 12.533C8.36341 11.7854 8.4819 11.0189 8.82234 10.3426C9.16277 9.6662 9.70781 9.11439 10.3799 8.76564C11.0521 8.4169 11.817 8.28896 12.566 8.40003C13.3301 8.51332 14.0374 8.86934 14.5836 9.4155C15.1297 9.96166 15.4858 10.669 15.599 11.433Z" stroke="white" stroke-width="2" stroke-linecap="round" stroke-linejoin="round"/>
<path d="M16.9504 7.04993H16.9614" stroke="white" stroke-width="1.6" stroke-linecap="round" stroke-linejoin="round"/>
</svg>
