<svg width="62" height="16" viewBox="0 0 62 16" fill="none" xmlns="http://www.w3.org/2000/svg">
<path d="M0 4C0 1.79086 1.79086 0 4 0H58C60.2091 0 62 1.79086 62 4V12C62 14.2091 60.2091 16 58 16H4C1.79086 16 0 14.2091 0 12V4Z" fill="#F6CBCB"/>
<path d="M9.4929 5.78267C9.45881 5.43892 9.3125 5.17187 9.05398 4.98153C8.79545 4.79119 8.4446 4.69602 8.00142 4.69602C7.70028 4.69602 7.44602 4.73864 7.23864 4.82386C7.03125 4.90625 6.87216 5.02131 6.76136 5.16903C6.65341 5.31676 6.59943 5.48438 6.59943 5.67188C6.59375 5.82812 6.62642 5.96449 6.69744 6.08097C6.77131 6.19744 6.87216 6.2983 7 6.38352C7.12784 6.46591 7.27557 6.53835 7.44318 6.60085C7.6108 6.66051 7.78977 6.71165 7.98011 6.75426L8.7642 6.94176C9.14489 7.02699 9.49432 7.14062 9.8125 7.28267C10.1307 7.42472 10.4063 7.59943 10.6392 7.80682C10.8722 8.0142 11.0526 8.25852 11.1804 8.53977C11.3111 8.82102 11.3778 9.14347 11.3807 9.5071C11.3778 10.0412 11.2415 10.5043 10.9716 10.8963C10.7045 11.2855 10.3182 11.5881 9.8125 11.804C9.30966 12.017 8.70313 12.1236 7.9929 12.1236C7.28835 12.1236 6.67472 12.0156 6.15199 11.7997C5.6321 11.5838 5.22585 11.2642 4.93324 10.8409C4.64347 10.4148 4.49148 9.88778 4.47727 9.25994H6.26278C6.28267 9.55256 6.36648 9.79687 6.5142 9.9929C6.66477 10.1861 6.86506 10.3324 7.11506 10.4318C7.3679 10.5284 7.65341 10.5767 7.97159 10.5767C8.28409 10.5767 8.5554 10.5312 8.78551 10.4403C9.01847 10.3494 9.19886 10.223 9.3267 10.0611C9.45455 9.89915 9.51847 9.71307 9.51847 9.50284C9.51847 9.30682 9.46023 9.14205 9.34375 9.00852C9.23011 8.875 9.0625 8.76136 8.84091 8.66761C8.62216 8.57386 8.35369 8.48864 8.03551 8.41193L7.08523 8.1733C6.34943 7.99432 5.76847 7.71449 5.34233 7.33381C4.91619 6.95312 4.70455 6.44034 4.70739 5.79545C4.70455 5.26705 4.84517 4.8054 5.12926 4.41051C5.41619 4.01562 5.80966 3.70739 6.30966 3.4858C6.80966 3.2642 7.37784 3.15341 8.0142 3.15341C8.66193 3.15341 9.22727 3.2642 9.71023 3.4858C10.196 3.70739 10.5739 4.01562 10.8438 4.41051C11.1136 4.8054 11.2528 5.26278 11.2614 5.78267H9.4929ZM13.9268 12H11.9496L14.9624 3.27273H17.3402L20.3487 12H18.3714L16.1854 5.26705H16.1172L13.9268 12ZM13.8033 8.5696H18.4737V10.0099H13.8033V8.5696ZM21.886 3.27273L23.9954 9.90341H24.0763L26.19 3.27273H28.2354L25.2269 12H22.8491L19.8363 3.27273H21.886ZM29.2859 12V3.27273H35.1665V4.79403H31.131V6.87358H34.864V8.39489H31.131V10.4787H35.1836V12H29.2859ZM42.2915 13.0909V2.18182H42.9904V13.0909H42.2915ZM44.1452 5.78267C44.1112 5.43892 43.9648 5.17187 43.7063 4.98153C43.4478 4.79119 43.0969 4.69602 42.6538 4.69602C42.3526 4.69602 42.0984 4.73864 41.891 4.82386C41.6836 4.90625 41.5245 5.02131 41.4137 5.16903C41.3058 5.31676 41.2518 5.48438 41.2518 5.67188C41.2461 5.82812 41.2788 5.96449 41.3498 6.08097C41.4237 6.19744 41.5245 6.2983 41.6523 6.38352C41.7802 6.46591 41.9279 6.53835 42.0955 6.60085C42.2631 6.66051 42.4421 6.71165 42.6325 6.75426L43.4165 6.94176C43.7972 7.02699 44.1467 7.14062 44.4648 7.28267C44.783 7.42472 45.0586 7.59943 45.2915 7.80682C45.5245 8.0142 45.7049 8.25852 45.8327 8.53977C45.9634 8.82102 46.0302 9.14347 46.033 9.5071C46.0302 10.0412 45.8938 10.5043 45.6239 10.8963C45.3569 11.2855 44.9705 11.5881 44.4648 11.804C43.962 12.017 43.3555 12.1236 42.6452 12.1236C41.9407 12.1236 41.3271 12.0156 40.8043 11.7997C40.2844 11.5838 39.8782 11.2642 39.5856 10.8409C39.2958 10.4148 39.1438 9.88778 39.1296 9.25994H40.9151C40.935 9.55256 41.0188 9.79687 41.1665 9.9929C41.3171 10.1861 41.5174 10.3324 41.7674 10.4318C42.0202 10.5284 42.3058 10.5767 42.6239 10.5767C42.9364 10.5767 43.2077 10.5312 43.4379 10.4403C43.6708 10.3494 43.8512 10.223 43.979 10.0611C44.1069 9.89915 44.1708 9.71307 44.1708 9.50284C44.1708 9.30682 44.1126 9.14205 43.9961 9.00852C43.8825 8.875 43.7148 8.76136 43.4933 8.66761C43.2745 8.57386 43.006 8.48864 42.6879 8.41193L41.7376 8.1733C41.0018 7.99432 40.4208 7.71449 39.9947 7.33381C39.5685 6.95312 39.3569 6.44034 39.3597 5.79545C39.3569 5.26705 39.4975 4.8054 39.7816 4.41051C40.0685 4.01562 40.462 3.70739 40.962 3.4858C41.462 3.2642 42.0302 3.15341 42.6665 3.15341C43.3143 3.15341 43.8796 3.2642 44.3626 3.4858C44.8484 3.70739 45.2262 4.01562 45.4961 4.41051C45.766 4.8054 45.9052 5.26278 45.9137 5.78267H44.1452ZM53.4222 12.1918C52.6893 12.1889 52.0586 12.0085 51.5302 11.6506C51.0046 11.2926 50.5998 10.7741 50.3157 10.0952C50.0344 9.41619 49.8952 8.59943 49.8981 7.64489C49.8981 6.69318 50.0387 5.8821 50.32 5.21165C50.604 4.54119 51.0089 4.03125 51.5344 3.68182C52.0629 3.32955 52.6921 3.15341 53.4222 3.15341C54.1523 3.15341 54.7802 3.32955 55.3058 3.68182C55.8342 4.03409 56.2404 4.54545 56.5245 5.21591C56.8086 5.88352 56.9492 6.69318 56.9464 7.64489C56.9464 8.60227 56.8043 9.42045 56.5202 10.0994C56.239 10.7784 55.8356 11.2969 55.31 11.6548C54.7844 12.0128 54.1552 12.1918 53.4222 12.1918ZM53.4222 10.6619C53.9222 10.6619 54.3214 10.4105 54.6197 9.90767C54.918 9.40483 55.0657 8.65057 55.0629 7.64489C55.0629 6.98295 54.9947 6.43182 54.8583 5.99148C54.7248 5.55114 54.5344 5.22017 54.2873 4.99858C54.043 4.77699 53.7546 4.66619 53.4222 4.66619C52.9251 4.66619 52.5273 4.91477 52.229 5.41193C51.9308 5.90909 51.7802 6.65341 51.7773 7.64489C51.7773 8.31534 51.8441 8.875 51.9776 9.32386C52.114 9.76989 52.3058 10.1051 52.5529 10.3295C52.8001 10.5511 53.0898 10.6619 53.4222 10.6619Z" fill="#E63737"/>
</svg>
